HIERARCHY
ROOT Hips
{
	OFFSET 0.0000 0.0000 0.0000
	CHANNELS 6 Xposition Yposition Zposition Zrotation Xrotation Yrotation
	JOINT Spine1
	{
		OFFSET -0.0137 5.0038 -0.0537
		CHANNELS 3 Zrotation Xrotation Yrotation
		JOINT Spine2
		{
			OFFSET -0.0000 7.1253 -0.0298
			CHANNELS 3 Zrotation Xrotation Yrotation
			JOINT Chest
			{
				OFFSET -0.0000 7.5501 -0.8160
				CHANNELS 3 Zrotation Xrotation Yrotation
				JOINT Neck1
				{
					OFFSET -0.1817 26.3113 -0.5533
					CHANNELS 3 Zrotation Xrotation Yrotation
					JOINT Neck2
					{
						OFFSET -0.0000 7.7094 2.3026
						CHANNELS 3 Zrotation Xrotation Yrotation
						JOINT Head
						{
							OFFSET -0.0000 6.1289 1.9537
							CHANNELS 3 Zrotation Xrotation Yrotation
							JOINT Jaw
							{
								OFFSET 0.0026 0.4756 3.0949
								CHANNELS 3 Zrotation Xrotation Yrotation
								End Site
								{
									OFFSET 0.0 1.0 0.0
								}
							}
							JOINT LeftEye
							{
								OFFSET 3.2064 5.3802 7.5869
								CHANNELS 3 Zrotation Xrotation Yrotation
								End Site
								{
									OFFSET 0.0 1.0 0.0
								}
							}
							JOINT RightEye
							{
								OFFSET -3.2224 5.3619 7.5582
								CHANNELS 3 Zrotation Xrotation Yrotation
								End Site
								{
									OFFSET 0.0 1.0 0.0
								}
							}
						}
					}
				}
				JOINT LeftShoulder
				{
					OFFSET 1.6217 23.2372 5.1134
					CHANNELS 3 Zrotation Xrotation Yrotation
					JOINT LeftArm
					{
						OFFSET 14.9198 0.0000 -5.5023
						CHANNELS 3 Zrotation Xrotation Yrotation
						JOINT LeftForeArm
						{
							OFFSET 28.7393 0.0000 -0.0026
							CHANNELS 3 Zrotation Xrotation Yrotation
							JOINT LeftHand
							{
								OFFSET 27.0940 -0.0000 0.0026
								CHANNELS 3 Zrotation Xrotation Yrotation
								JOINT LeftHandThumbEnd
								{
									OFFSET 12.2686 -3.2202 4.8331
									CHANNELS 3 Zrotation Xrotation Yrotation
									End Site
									{
										OFFSET 0.0 1.0 0.0
									}
								}
								JOINT LeftHandMiddleEnd
								{
									OFFSET 19.0120 -0.3129 -0.0340
									CHANNELS 3 Zrotation Xrotation Yrotation
									End Site
									{
										OFFSET 0.0 1.0 0.0
									}
								}
							}
						}
					}
				}
				JOINT RightShoulder
				{
					OFFSET -1.3801 23.1803 5.2142
					CHANNELS 3 Zrotation Xrotation Yrotation
					JOINT RightArm
					{
						OFFSET -15.0372 0.0000 -5.5456
						CHANNELS 3 Zrotation Xrotation Yrotation
						JOINT RightForeArm
						{
							OFFSET -28.7366 0.0000 -0.0026
							CHANNELS 3 Zrotation Xrotation Yrotation
							JOINT RightHand
							{
								OFFSET -27.1336 -0.0000 0.0026
								CHANNELS 3 Zrotation Xrotation Yrotation
								JOINT RightHandThumbEnd
								{
									OFFSET -12.2642 -3.2115 4.8040
									CHANNELS 3 Zrotation Xrotation Yrotation
									End Site
									{
										OFFSET 0.0 1.0 0.0
									}
								}
								JOINT RightHandMiddleEnd
								{
									OFFSET -19.0006 -0.3066 -0.0316
									CHANNELS 3 Zrotation Xrotation Yrotation
									End Site
									{
										OFFSET 0.0 1.0 0.0
									}
								}
							}
						}
					}
				}
			}
		}
	}
	JOINT LeftLeg
	{
		OFFSET 10.0432 -8.4345 2.5957
		CHANNELS 3 Zrotation Xrotation Yrotation
		JOINT LeftShin
		{
			OFFSET -0.0000 -43.2218 -0.8029
			CHANNELS 3 Zrotation Xrotation Yrotation
			JOINT LeftFoot
			{
				OFFSET 0.0000 -42.1551 -3.4815
				CHANNELS 3 Zrotation Xrotation Yrotation
				JOINT LeftToeBase
				{
					OFFSET 0.0000 -5.0595 13.2315
					CHANNELS 3 Zrotation Xrotation Yrotation
					End Site
					{
						OFFSET 0.0 1.0 0.0
					}
				}
			}
		}
	}
	JOINT RightLeg
	{
		OFFSET -10.0473 -8.2953 2.6203
		CHANNELS 3 Zrotation Xrotation Yrotation
		JOINT RightShin
		{
			OFFSET 0.0000 -43.3622 -0.8056
			CHANNELS 3 Zrotation Xrotation Yrotation
			JOINT RightFoot
			{
				OFFSET 0.0000 -42.1174 -3.4784
				CHANNELS 3 Zrotation Xrotation Yrotation
				JOINT RightToeBase
				{
					OFFSET -0.0000 -5.0796 13.2842
					CHANNELS 3 Zrotation Xrotation Yrotation
					End Site
					{
						OFFSET 0.0 1.0 0.0
					}
				}
			}
		}
	}
}
MOTION
Frames: 14
Frame Time: 0.033333
2.5190 90.8332 -2.8236 1.1866 2.1159 -0.0011 1.5785 9.9271 -0.8092 0.3753 -1.7296 -2.4630 2.4179 21.4875 -4.3212 9.9803 17.2785 -0.2665 -2.0852 -3.8504 -5.6388 5.7153 -12.8851 -9.6309 -0.0298 -0.0480 0.1125 0.6677 -10.5679 -3.7247 -0.7082 -10.5778 3.9442 5.6635 16.6827 -13.9096 -35.8657 -45.7812 -39.2232 0.5297 -0.0929 -100.3861 3.5020 6.4365 -13.7450 -15.6407 11.1541 16.0416 -61.5015 1.8385 2.1988 5.1957 17.5517 14.9887 68.5226 -46.0839 -18.7856 -0.1221 0.0246 52.4619 -45.2927 -24.0126 34.5198 14.4814 7.1455 -15.6716 49.2993 -3.6647 -4.9748 14.1735 -21.7008 20.6277 -0.2475 43.8262 -0.5463 -18.5635 -21.9765 5.4013 1.6165 -0.5551 -1.8503 -5.5731 -44.6743 -30.4119 0.1412 32.7273 0.0550 4.9628 10.0974 -0.5889 -1.4155 0.8051 0.8813
2.5748 90.7908 -2.7377 1.1747 1.9163 0.0893 1.6172 9.8357 -0.8083 0.3801 -1.7320 -2.3789 2.5609 21.6522 -4.2654 10.1946 17.2314 -0.3395 -2.0645 -3.8437 -5.8392 5.7558 -12.8554 -9.6344 -0.0255 -0.0517 0.0982 0.6852 -10.5483 -3.7431 -0.7165 -10.5528 3.9319 5.6773 16.8170 -13.7631 -35.5916 -45.6239 -39.3909 0.5225 -0.2534 -100.4287 3.5422 6.7026 -13.6147 -15.7196 11.1277 16.0238 -61.6207 1.8495 2.2726 5.3927 17.7338 14.9376 68.0236 -46.3338 -18.1617 -0.0628 0.0743 51.9754 -45.6678 -23.5845 34.6209 14.4879 7.1367 -15.6940 49.4515 -3.6996 -4.8977 14.2740 -21.5452 20.4687 -0.2739 43.9267 -0.5708 -18.5662 -22.1456 5.3213 1.6213 -0.6387 -1.8771 -5.9037 -44.5253 -30.1273 0.1551 32.9306 0.0762 5.0791 10.0005 -0.7935 -1.4244 0.7606 0.9137
2.5598 90.7309 -2.6367 1.1185 1.6342 0.2178 1.6282 9.7229 -0.8018 0.3793 -1.7471 -2.3515 2.7209 21.8091 -4.1851 10.4760 17.2526 -0.4369 -2.0706 -3.8573 -5.9498 5.7901 -12.8641 -9.6174 -0.0294 -0.0534 0.1017 0.6905 -10.5724 -3.7437 -0.7286 -10.5678 3.9394 5.8068 16.9451 -13.6425 -35.3583 -45.4598 -39.4121 0.5696 -0.3178 -100.5313 3.5259 6.8848 -13.5170 -15.8391 11.0959 16.0032 -61.7306 1.8351 2.2539 5.6280 17.8855 15.0005 67.3317 -46.4299 -17.4321 -0.0992 0.1488 51.6529 -45.9901 -23.2349 34.6639 14.5093 7.0881 -15.7139 49.4959 -3.7404 -4.8599 14.4791 -21.2959 20.3290 -0.2898 44.0167 -0.5933 -18.5432 -22.3077 5.2045 1.6249 -0.6842 -1.8955 -6.2303 -44.3079 -29.9458 0.1666 33.2272 0.0888 5.1736 9.8732 -0.8588 -1.4263 0.7687 0.9462
2.4843 90.7051 -2.4931 1.0237 1.3172 0.3663 1.6224 9.6175 -0.7913 0.3844 -1.7951 -2.3388 2.8877 21.8741 -4.1073 10.6956 17.3771 -0.5606 -2.0255 -3.8675 -5.9879 5.8527 -12.9745 -9.5901 -0.0326 -0.0617 0.1084 0.6890 -10.6178 -3.7450 -0.7328 -10.6084 3.9543 6.0162 17.0737 -13.5390 -35.2167 -45.3350 -39.2503 0.5880 -0.3372 -100.6980 3.5143 6.9689 -13.4593 -15.9387 11.0808 15.9897 -61.8209 1.8402 2.2216 5.7947 18.0360 15.0423 66.9226 -46.3471 -16.9793 -0.1503 0.2469 51.6803 -46.0468 -22.9725 34.5138 14.5334 7.0483 -15.7298 49.5053 -3.7605 -4.8448 14.7398 -20.9184 20.1837 -0.2927 43.9290 -0.5994 -18.5193 -22.3952 5.1272 1.6261 -0.7333 -1.9070 -6.5314 -43.9240 -29.8011 0.1806 33.3983 0.1104 5.2764 9.7320 -0.8867 -1.4251 0.7647 0.9596
2.3709 90.7553 -2.3299 0.9056 1.0249 0.5295 1.6033 9.5240 -0.7960 0.3867 -1.8660 -2.3369 3.0251 21.8279 -4.0681 10.8432 17.5362 -0.6584 -1.9607 -3.8730 -5.9824 5.9599 -13.1049 -9.5597 -0.0300 -0.0670 0.1084 0.6890 -10.6522 -3.7511 -0.7265 -10.6396 3.9580 6.3151 17.1419 -13.4475 -35.1235 -45.2650 -38.9603 0.6531 -0.2791 -100.9771 3.5612 6.9408 -13.4294 -16.0078 11.0869 15.9845 -61.8747 1.8644 2.2140 5.8902 18.1293 15.0393 66.7631 -46.0854 -16.7843 -0.1979 0.3672 52.1350 -45.8288 -22.7142 34.1657 14.5375 7.0420 -15.7475 49.4915 -3.7112 -4.8478 15.0109 -20.4639 20.0745 -0.2956 43.6290 -0.6238 -18.4915 -22.3875 5.1028 1.6238 -0.7813 -1.8993 -6.7369 -43.3987 -29.7035 0.1892 33.3315 0.1389 5.3506 9.6222 -0.9697 -1.4238 0.7972 0.9695
2.2429 90.8655 -2.1528 0.8092 0.8015 0.6708 1.5620 9.4277 -0.8116 0.3768 -1.9244 -2.3414 3.1026 21.6786 -4.0789 10.8719 17.6437 -0.7114 -1.8831 -3.8730 -5.9653 6.0864 -13.1808 -9.5274 -0.0232 -0.0700 0.1004 0.6913 -10.6755 -3.7644 -0.7149 -10.6647 3.9528 6.5769 17.1598 -13.3844 -34.9635 -45.2426 -38.6910 0.7281 -0.2315 -101.3033 3.6412 6.8672 -13.4391 -15.9765 11.1106 16.0120 -61.8738 1.8838 2.2253 5.9214 18.1726 15.0407 66.7931 -45.7385 -16.8836 -0.1229 0.4223 52.9866 -45.3052 -22.2378 33.5674 14.5839 7.0254 -15.7513 49.4462 -3.6512 -4.8299 15.2383 -19.9627 19.9716 -0.2958 43.1167 -0.6528 -18.4686 -22.2777 5.1236 1.6240 -0.8233 -1.8869 -6.8664 -42.8374 -29.6260 0.1960 33.0951 0.1655 5.3723 9.5557 -1.1184 -1.4229 0.8356 0.9677
2.0769 91.0276 -1.9925 0.7344 0.6623 0.7824 1.5161 9.3541 -0.8265 0.3650 -1.9976 -2.3736 3.0670 21.4576 -4.1060 10.7699 17.6803 -0.7024 -1.8237 -3.8644 -5.9035 6.1824 -13.1973 -9.4694 -0.0217 -0.0704 0.0999 0.6895 -10.6844 -3.7681 -0.7087 -10.6784 3.9539 6.7462 17.1116 -13.3563 -34.7114 -45.3031 -38.4787 0.7755 -0.1657 -101.6670 3.7280 6.6607 -13.4119 -15.9049 11.1524 16.0221 -61.8828 1.8770 2.2155 5.8976 18.1937 15.0708 66.6361 -45.2223 -16.8791 -0.0029 0.4089 54.2747 -44.6267 -21.4751 32.8399 14.5769 7.0377 -15.7769 49.4044 -3.6020 -4.8280 15.4086 -19.4752 19.9019 -0.3037 42.4658 -0.6789 -18.4518 -22.0465 5.1646 1.6253 -0.8595 -1.8802 -6.9033 -42.2988 -29.5888 0.1890 32.7403 0.1677 5.3537 9.5394 -1.2771 -1.4238 0.8425 0.9532
1.9079 91.1920 -1.8490 0.6941 0.6218 0.8997 1.4703 9.2636 -0.8635 0.3417 -2.0476 -2.3802 2.9376 21.2176 -4.1684 10.5513 17.5483 -0.6134 -1.7855 -3.8519 -5.8306 6.2124 -13.2143 -9.3834 -0.0233 -0.0676 0.1021 0.6836 -10.6807 -3.7671 -0.7061 -10.6815 3.9583 6.7630 17.0056 -13.4063 -34.3028 -45.4580 -38.4371 0.8082 -0.0529 -101.9930 3.8293 6.3014 -13.3920 -15.7945 11.2214 16.0462 -61.8843 1.8840 2.2018 5.8165 18.1956 15.0877 66.1050 -44.6647 -16.5521 0.1314 0.3746 55.8553 -43.8678 -20.5268 32.0282 14.5766 7.0664 -15.8191 49.3727 -3.5581 -4.8506 15.5421 -19.0591 19.8434 -0.3023 41.7464 -0.6864 -18.5318 -21.7181 5.2053 1.6265 -0.8684 -1.8769 -6.8768 -41.8538 -29.6231 0.1912 32.3331 0.1837 5.3118 9.5331 -1.4643 -1.4235 0.8180 0.9378
1.7251 91.3468 -1.7507 0.6680 0.6673 1.0059 1.4201 9.1837 -0.8867 0.3171 -2.0896 -2.3863 2.7337 20.9971 -4.2569 10.2520 17.2434 -0.4592 -1.7802 -3.8367 -5.7370 6.1946 -13.2222 -9.3131 -0.0288 -0.0652 0.1086 0.6750 -10.6749 -3.7607 -0.7083 -10.6800 3.9662 6.6404 16.8368 -13.5648 -33.7937 -45.7517 -38.5363 0.7727 -0.0128 -102.1851 3.9851 5.9223 -13.4338 -15.6379 11.2808 16.0545 -61.7876 1.8911 2.1775 5.7036 18.1480 15.1215 65.0123 -44.1077 -15.7387 0.2235 0.3252 57.5635 -43.0903 -19.6035 31.3441 14.6091 7.1110 -15.8810 49.3970 -3.5248 -4.9006 15.6589 -18.7854 19.7825 -0.3051 41.0911 -0.6948 -18.6544 -21.3328 5.1817 1.6296 -0.8154 -1.8708 -6.7535 -41.5601 -29.7467 0.1900 32.0090 0.1866 5.2786 9.5138 -1.6203 -1.4240 0.8240 0.9271
1.5665 91.4574 -1.6862 0.6321 0.7764 1.1298 1.3728 9.1288 -0.9133 0.2922 -2.1145 -2.3590 2.4928 20.8102 -4.3673 9.8972 16.7443 -0.2664 -1.7835 -3.8198 -5.6628 6.1305 -13.2781 -9.2584 -0.0319 -0.0642 0.1106 0.6673 -10.6632 -3.7574 -0.7078 -10.6704 3.9678 6.4323 16.6361 -13.8054 -33.1997 -46.1299 -38.8453 0.7345 -0.0863 -102.2327 4.0892 5.5836 -13.5448 -15.4610 11.3043 16.0464 -61.6193 1.8870 2.1562 5.5593 18.0670 15.1816 63.5681 -43.7358 -14.5957 0.2188 0.3042 59.0328 -42.5037 -19.0007 30.9267 14.6312 7.1773 -15.9543 49.4637 -3.5455 -4.9254 15.7794 -18.6805 19.7079 -0.3036 40.5803 -0.6932 -18.7572 -20.9775 5.0733 1.6304 -0.7581 -1.8679 -6.5344 -41.4232 -30.0140 0.1912 31.8176 0.1805 5.2437 9.4703 -1.7118 -1.4244 0.8919 0.9126
1.3802 91.5253 -1.6527 0.5848 0.9221 1.2831 1.3337 9.0904 -0.9051 0.2702 -2.1353 -2.3556 2.2520 20.6739 -4.4365 9.5333 16.1023 -0.1000 -1.8313 -3.8002 -5.5941 6.0667 -13.3638 -9.2618 -0.0304 -0.0625 0.1065 0.6656 -10.6473 -3.7612 -0.7032 -10.6565 3.9621 6.1860 16.4503 -14.1139 -32.5782 -46.5574 -39.3731 0.6765 -0.1421 -102.0549 4.0803 5.1470 -13.6857 -15.3261 11.3183 16.0239 -61.5014 1.8819 2.1598 5.4052 17.9764 15.2652 62.1248 -43.7955 -13.5111 0.1789 0.3254 59.9548 -42.2656 -18.8765 30.7922 14.6385 7.2138 -15.9975 49.5416 -3.5748 -4.9478 15.9040 -18.7409 19.5700 -0.2965 40.2852 -0.6830 -18.8050 -20.7082 4.9445 1.6312 -0.7085 -1.8746 -6.2469 -41.4193 -30.3674 0.1939 31.7949 0.1721 5.1848 9.3970 -1.8220 -1.4272 0.9587 0.9055
1.2311 91.5451 -1.6574 0.5301 1.0649 1.4350 1.2944 9.0986 -0.8744 0.2439 -2.1377 -2.3206 2.0399 20.5822 -4.4931 9.2132 15.4014 0.0540 -1.8717 -3.7915 -5.5977 6.0178 -13.5152 -9.2880 -0.0302 -0.0611 0.1035 0.6665 -10.6248 -3.7596 -0.7052 -10.6351 3.9553 5.9937 16.3219 -14.4439 -31.9167 -46.9906 -40.1175 0.6476 -0.2411 -101.6635 3.9831 4.7907 -13.8849 -15.2293 11.2875 15.9799 -61.3366 1.8439 2.1717 5.2522 17.9147 15.3933 61.0005 -44.3693 -12.8121 0.1908 0.3061 60.3258 -42.3443 -19.0913 30.8848 14.6354 7.2002 -16.0012 49.5673 -3.6207 -4.9525 16.0411 -18.9271 19.3559 -0.2886 40.2384 -0.6748 -18.8076 -20.5428 4.8544 1.6309 -0.6801 -1.8919 -5.9438 -41.5609 -30.7755 0.1953 31.9949 0.1573 5.1004 9.2838 -1.8389 -1.4281 1.0031 0.8896
1.0895 91.5025 -1.6703 0.4467 1.1758 1.6006 1.2581 9.1293 -0.8475 0.2232 -2.1194 -2.2705 1.8819 20.5233 -4.5058 8.9724 14.6975 0.1272 -1.9452 -3.7961 -5.5814 5.9730 -13.7077 -9.3118 -0.0341 -0.0643 0.1084 0.6647 -10.5938 -3.7473 -0.7118 -10.6081 3.9546 5.8434 16.2302 -14.7281 -31.3211 -47.3565 -40.9955 0.6496 -0.3181 -101.1581 3.7590 4.5047 -14.1002 -15.1930 11.2424 15.9416 -61.2471 1.7969 2.2061 5.1272 17.8522 15.5630 60.2504 -45.3113 -12.4976 0.2020 0.3234 60.1805 -42.6543 -19.5937 31.0946 14.6104 7.1760 -15.9786 49.5565 -3.6550 -4.9508 16.2262 -19.1708 19.0444 -0.2835 40.3788 -0.6651 -18.8203 -20.4897 4.8359 1.6298 -0.6664 -1.9097 -5.6314 -41.7401 -31.1900 0.2054 32.3286 0.1551 4.9592 9.1505 -1.8495 -1.4301 0.9979 0.8718
0.9649 91.4152 -1.6995 0.3525 1.2488 1.7491 1.2262 9.1809 -0.7885 0.1988 -2.1070 -2.2390 1.7573 20.5104 -4.4818 8.8407 14.0543 0.1570 -2.0153 -3.7987 -5.5563 5.9405 -13.9050 -9.3659 -0.0400 -0.0664 0.1183 0.6629 -10.5719 -3.7304 -0.7227 -10.5850 3.9608 5.7951 16.1593 -14.9575 -30.9478 -47.6493 -41.8096 0.6447 -0.3884 -100.6608 3.4122 4.3892 -14.2858 -15.2265 11.2031 15.9126 -61.2461 1.7516 2.2481 5.0301 17.7830 15.7932 60.0240 -46.4456 -12.7393 0.2972 0.3075 59.6827 -43.1363 -20.2665 31.4298 14.6064 7.1410 -15.9276 49.5471 -3.6751 -4.9310 16.4472 -19.4438 18.7109 -0.2826 40.6777 -0.6679 -18.8710 -20.5135 4.8298 1.6299 -0.6407 -1.9375 -5.3547 -41.9574 -31.5661 0.2182 32.7922 0.1616 4.7945 8.9474 -1.8408 -1.4311 0.9692 0.8576
